<?xml version="1.0" standalone="no"?>
<!DOCTYPE svg PUBLIC "-//W3C//DTD SVG 20010904//EN"
 "http://www.w3.org/TR/2001/REC-SVG-20010904/DTD/svg10.dtd">
<svg version="1.0" xmlns="http://www.w3.org/2000/svg"
 width="700.000000pt" height="700.000000pt" viewBox="0 0 700.000000 700.000000"
 preserveAspectRatio="xMidYMid meet">
<metadata>
Created by potrace 1.14, written by Peter Selinger 2001-2017
</metadata>
<g transform="translate(0.000000,700.000000) scale(0.100000,-0.100000)"
fill="#000000" stroke="none">
<path d="M3020 6994 c-506 -33 -766 -68 -1075 -144 -1173 -288 -1736 -995
-1899 -2385 -35 -302 -41 -432 -41 -965 0 -533 6 -663 41 -965 175 -1494 814
-2207 2189 -2445 408 -70 627 -85 1265 -85 533 0 663 6 965 41 991 116 1630
439 2015 1016 284 428 431 940 502 1758 18 198 18 1161 0 1365 -69 803 -221
1334 -503 1755 -203 302 -465 526 -814 695 -376 183 -822 289 -1460 346 -114
10 -1069 20 -1185 13z m-193 -1732 l243 -347 0 -1408 0 -1409 -241 -369 -242
-369 -649 0 c-517 0 -648 3 -642 13 5 6 345 489 758 1072 412 583 751 1067
753 1075 2 8 -339 480 -757 1048 -418 568 -760 1035 -760 1038 0 2 291 4 648
4 l647 0 242 -348z m2837 336 c-4 -7 -349 -476 -767 -1041 -417 -566 -756
-1034 -754 -1040 3 -7 348 -493 766 -1082 l761 -1070 -647 -3 c-510 -2 -650 1
-659 10 -6 7 -127 192 -268 410 l-256 397 0 1331 0 1331 266 385 267 384 649
0 c517 0 648 -3 642 -12z"/>
</g>
</svg>
